<svg width="32" height="32" viewBox="0 0 32 32" fill="none" xmlns="http://www.w3.org/2000/svg">
<g clip-path="url(#clip0_1123_505)">
<rect x="5.60001" y="5.59998" width="20.8" height="20.8" rx="10.4" fill="url(#paint0_radial_1123_505)"/>
<rect x="7.25693" y="7.20001" width="17.6" height="17.6" rx="8.8" fill="url(#paint1_linear_1123_505)"/>
<rect x="7.33693" y="7.28001" width="17.44" height="17.44" rx="8.72" stroke="white" stroke-opacity="0.3" stroke-width="0.16"/>
<g filter="url(#filter0_d_1123_505)">
<path d="M14.2476 11.2664C14.4683 11.2666 14.647 11.446 14.647 11.6668V20.3338C14.6468 20.5545 14.4682 20.733 14.2476 20.7332H12.3423C12.1215 20.7332 11.943 20.5545 11.9429 20.3338V11.6668C11.9429 11.4459 12.1214 11.2665 12.3423 11.2664H14.2476ZM19.6567 11.2664C19.8777 11.2664 20.0571 11.4459 20.0571 11.6668V20.3338C20.057 20.5546 19.8775 20.7332 19.6567 20.7332H17.7524C17.5316 20.7332 17.3522 20.5546 17.3521 20.3338V17.3524H14.6479V14.6473H17.3521V11.6668C17.3521 11.4459 17.5315 11.2664 17.7524 11.2664H19.6567Z" fill="url(#paint2_linear_1123_505)" fill-opacity="0.8" shape-rendering="crispEdges"/>
</g>
</g>
<defs>
<filter id="filter0_d_1123_505" x="10.3429" y="10.4664" width="11.3143" height="12.6668" filterUnits="userSpaceOnUse" color-interpolation-filters="sRGB">
<feFlood flood-opacity="0" result="BackgroundImageFix"/>
<feColorMatrix in="SourceAlpha" type="matrix" values="0 0 0 0 0 0 0 0 0 0 0 0 0 0 0 0 0 0 127 0" result="hardAlpha"/>
<feOffset dy="0.8"/>
<feGaussianBlur stdDeviation="0.8"/>
<feComposite in2="hardAlpha" operator="out"/>
<feColorMatrix type="matrix" values="0 0 0 0 0.0524223 0 0 0 0 0.302885 0 0 0 0 0.23192 0 0 0 0.28 0"/>
<feBlend mode="normal" in2="BackgroundImageFix" result="effect1_dropShadow_1123_505"/>
<feBlend mode="normal" in="SourceGraphic" in2="effect1_dropShadow_1123_505" result="shape"/>
</filter>
<radialGradient id="paint0_radial_1123_505" cx="0" cy="0" r="1" gradientUnits="userSpaceOnUse" gradientTransform="translate(16 16) rotate(90) scale(10.4)">
<stop stop-color="#9070F8"/>
<stop offset="0.528846" stop-color="#B29AF9"/>
<stop offset="1" stop-color="#9070F8"/>
</radialGradient>
<linearGradient id="paint1_linear_1123_505" x1="11.0001" y1="9.50006" x2="20.5001" y2="23.5001" gradientUnits="userSpaceOnUse">
<stop stop-color="#6F54C5"/>
<stop offset="1" stop-color="#9475F8"/>
</linearGradient>
<linearGradient id="paint2_linear_1123_505" x1="15" y1="14.0001" x2="17.1832" y2="20.7333" gradientUnits="userSpaceOnUse">
<stop stop-color="white"/>
<stop offset="1" stop-color="#F4EEFF"/>
</linearGradient>
<clipPath id="clip0_1123_505">
<rect x="5.60001" y="5.59998" width="20.8" height="20.8" rx="10.4" fill="white"/>
</clipPath>
</defs>
</svg>
