<svg width="22" height="22" viewBox="0 0 22 22" fill="none" xmlns="http://www.w3.org/2000/svg">
<g clip-path="url(#clip0_1123_2239)">
<rect x="0.600006" y="0.599976" width="20.8" height="20.8" rx="10.4" fill="url(#paint0_radial_1123_2239)"/>
<g filter="url(#filter0_i_1123_2239)">
<rect x="2.25693" y="2.20001" width="17.6" height="17.6" rx="8.8" fill="url(#paint1_linear_1123_2239)"/>
</g>
<rect x="2.33693" y="2.28001" width="17.44" height="17.44" rx="8.72" stroke="white" stroke-opacity="0.3" stroke-width="0.16"/>
<g filter="url(#filter1_d_1123_2239)">
<path d="M9.24756 6.26642C9.46832 6.2666 9.64697 6.44601 9.64697 6.66681V15.3338C9.64681 15.5545 9.46822 15.733 9.24756 15.7332H7.34229C7.12152 15.7332 6.94303 15.5545 6.94287 15.3338V6.66681C6.94287 6.44593 7.12142 6.26647 7.34229 6.26642H9.24756ZM14.6567 6.26642C14.8777 6.26642 15.0571 6.4459 15.0571 6.66681V15.3338C15.057 15.5546 14.8775 15.7332 14.6567 15.7332H12.7524C12.5316 15.7332 12.3522 15.5546 12.3521 15.3338V12.3524H9.64795V9.64728H12.3521V6.66681C12.3521 6.4459 12.5315 6.26642 12.7524 6.26642H14.6567Z" fill="url(#paint2_linear_1123_2239)"/>
</g>
</g>
<defs>
<filter id="filter0_i_1123_2239" x="2.25693" y="2.20001" width="17.6" height="20.8" filterUnits="userSpaceOnUse" color-interpolation-filters="sRGB">
<feFlood flood-opacity="0" result="BackgroundImageFix"/>
<feBlend mode="normal" in="SourceGraphic" in2="BackgroundImageFix" result="shape"/>
<feColorMatrix in="SourceAlpha" type="matrix" values="0 0 0 0 0 0 0 0 0 0 0 0 0 0 0 0 0 0 127 0" result="hardAlpha"/>
<feOffset dy="4.8"/>
<feGaussianBlur stdDeviation="1.6"/>
<feComposite in2="hardAlpha" operator="arithmetic" k2="-1" k3="1"/>
<feColorMatrix type="matrix" values="0 0 0 0 0.668269 0 0 0 0 0.668269 0 0 0 0 0.668269 0 0 0 1 0"/>
<feBlend mode="normal" in2="shape" result="effect1_innerShadow_1123_2239"/>
</filter>
<filter id="filter1_d_1123_2239" x="5.34287" y="5.46642" width="11.3143" height="12.6668" filterUnits="userSpaceOnUse" color-interpolation-filters="sRGB">
<feFlood flood-opacity="0" result="BackgroundImageFix"/>
<feColorMatrix in="SourceAlpha" type="matrix" values="0 0 0 0 0 0 0 0 0 0 0 0 0 0 0 0 0 0 127 0" result="hardAlpha"/>
<feOffset dy="0.8"/>
<feGaussianBlur stdDeviation="0.8"/>
<feComposite in2="hardAlpha" operator="out"/>
<feColorMatrix type="matrix" values="0 0 0 0 0.302885 0 0 0 0 0.302885 0 0 0 0 0.302885 0 0 0 0.32 0"/>
<feBlend mode="normal" in2="BackgroundImageFix" result="effect1_dropShadow_1123_2239"/>
<feBlend mode="normal" in="SourceGraphic" in2="effect1_dropShadow_1123_2239" result="shape"/>
</filter>
<radialGradient id="paint0_radial_1123_2239" cx="0" cy="0" r="1" gradientUnits="userSpaceOnUse" gradientTransform="translate(11 11) rotate(90) scale(10.4)">
<stop stop-color="#D4D4D4"/>
<stop offset="0.528846" stop-color="#E3E3E3"/>
<stop offset="1" stop-color="#C4C4C4"/>
</radialGradient>
<linearGradient id="paint1_linear_1123_2239" x1="5.33693" y1="4.84001" x2="16.7769" y2="17.6" gradientUnits="userSpaceOnUse">
<stop stop-color="#D4D4D4"/>
<stop offset="1" stop-color="#D4D4D4"/>
</linearGradient>
<linearGradient id="paint2_linear_1123_2239" x1="9.81661" y1="9.02757" x2="12.1832" y2="15.7333" gradientUnits="userSpaceOnUse">
<stop stop-color="white"/>
<stop offset="1" stop-color="#D4D4D4"/>
</linearGradient>
<clipPath id="clip0_1123_2239">
<rect x="0.600006" y="0.599976" width="20.8" height="20.8" rx="10.4" fill="white"/>
</clipPath>
</defs>
</svg>
