<svg width="20" height="20" viewBox="0 0 20 20" fill="none" xmlns="http://www.w3.org/2000/svg">
<path d="M10 2C14.4183 2 18 5.58172 18 10C18 14.4183 14.4183 18 10 18C5.58172 18 2 14.4183 2 10C2 5.58172 5.58172 2 10 2ZM13.5303 6.46973C13.2374 6.17684 12.7626 6.17683 12.4697 6.46973L10 8.93945L7.53027 6.46973C7.23738 6.17683 6.76262 6.17683 6.46973 6.46973C6.17683 6.76262 6.17683 7.23738 6.46973 7.53027L8.93945 10L6.46973 12.4697C6.17683 12.7626 6.17684 13.2374 6.46973 13.5303C6.76262 13.8232 7.23738 13.8232 7.53027 13.5303L10 11.0605L12.4697 13.5303C12.7626 13.8232 13.2374 13.8232 13.5303 13.5303C13.8232 13.2374 13.8232 12.7626 13.5303 12.4697L11.0605 10L13.5303 7.53027C13.8232 7.23738 13.8232 6.76262 13.5303 6.46973Z" fill="#BABABA"/>
</svg>
