<svg width="227" height="144" viewBox="0 0 227 144" fill="none" xmlns="http://www.w3.org/2000/svg">
<g clip-path="url(#clip0_408_21347)">
<path d="M26.3762 33.8703C26.1656 33.7147 25.9377 33.5792 25.6862 33.4642C25.4942 33.3752 25.285 33.3062 25.07 33.244C23.5082 32.8128 21.043 32.9976 19.4217 33.6063C19.2313 33.6782 19.0541 33.7552 18.8843 33.844C18.66 33.9622 18.4494 34.0916 18.2594 34.2379C17.9746 34.4604 17.7303 34.7104 17.5276 35.0003C17.3757 35.2176 17.2448 35.458 17.1407 35.7147C17.0569 35.9139 16.9868 36.1244 16.9304 36.346C16.4009 38.2375 16.995 41.1983 16.7224 43.1237C16.6882 43.3807 16.634 43.6269 16.5655 43.8558C16.4872 44.1165 16.3815 44.3548 16.2547 44.57C16.0945 44.8377 15.8875 45.0783 15.6399 45.2914C15.3447 45.5396 14.9764 45.7506 14.548 45.9295C14.052 46.1328 13.4755 46.2871 12.8448 46.4026C12.1269 46.538 11.3486 46.6351 10.5721 46.6825C9.56832 46.7431 8.58425 46.7399 7.7478 46.6127C6.64129 46.4465 5.80015 46.0533 5.22054 45.39C4.76174 44.8713 4.45355 44.1912 4.21108 43.3939C4.05684 42.8741 3.92395 42.3092 3.80776 41.718C2.0735 33.0172 1.14996 24.5822 0.74375 15.7561C0.722617 15.3056 0.708331 14.8607 0.695691 14.4342C0.681111 13.7725 0.695566 13.1516 0.766448 12.5942C0.877558 11.7049 1.14946 10.9816 1.71717 10.4438C2.29528 9.88042 3.18921 9.51323 4.35566 9.28398C5.22194 9.10503 6.23503 9.00654 7.26181 8.91928C8.09332 8.84862 8.92538 8.7841 9.67993 8.77574C10.3515 8.76204 10.9639 8.79675 11.5046 8.88092C12.0069 8.96216 12.4374 9.09286 12.8036 9.2848C13.1167 9.45028 13.3764 9.65747 13.5952 9.90531C13.7577 10.0898 13.8971 10.301 14.0135 10.5389C14.1209 10.7467 14.2047 10.975 14.2833 11.2162C14.3376 11.3975 14.3929 11.591 14.4357 11.7857C14.8601 13.6271 14.8168 16.3447 15.5242 18.0133C15.6132 18.2288 15.7074 18.4314 15.8189 18.6141C15.9611 18.856 16.1137 19.0723 16.2961 19.2675C16.4933 19.4862 16.7193 19.6714 16.9683 19.83C17.1698 19.9553 17.3829 20.0674 17.6127 20.1532C19.2515 20.807 22.1393 20.5926 23.7581 19.7424C23.952 19.6392 24.1385 19.5242 24.305 19.3985C24.5192 19.2378 24.7123 19.0541 24.8785 18.8541C25.085 18.6073 25.2509 18.333 25.3889 18.03C25.5576 17.6439 25.6773 17.2062 25.7432 16.7359C25.822 16.1963 25.8387 15.6001 25.8211 14.9757C25.8032 14.2771 25.7363 13.5268 25.6916 12.8119C25.6365 11.9801 25.6052 11.202 25.6646 10.5154C25.7709 8.93254 26.486 7.91136 28.23 7.39757C28.5882 7.28658 28.9802 7.19751 29.4047 7.11806C29.7421 7.0584 30.1053 7.00275 30.4758 6.95887C30.7519 6.92301 31.0411 6.89224 31.3309 6.86761C33.2826 6.68936 35.2857 6.51912 36.6333 6.82595C36.8403 6.87031 37.0296 6.92858 37.2131 6.99354C37.4229 7.06865 37.6155 7.16382 37.796 7.26621C38.5059 7.68298 38.9401 8.35244 39.2275 9.22647C39.4108 9.78714 39.5376 10.427 39.65 11.1176C39.7193 11.5392 39.7777 11.9804 39.8366 12.4277C40.9889 21.0788 41.5659 29.4008 41.4331 38.1611C41.4231 38.6886 41.4056 39.2044 41.3733 39.6966C41.32 40.4509 41.216 41.1351 41.0019 41.7234C40.661 42.6694 39.9993 43.3638 38.935 43.8136C38.2079 44.1295 37.2992 44.3306 36.3214 44.4695C35.519 44.5811 34.6743 44.6466 33.8825 44.6644C33.2172 44.6775 32.5865 44.6506 32.0264 44.5619C31.5052 44.4822 31.0431 44.3542 30.6523 44.1705C30.3145 44.0134 30.0297 43.8083 29.7919 43.5621C29.5895 43.3562 29.4227 43.1226 29.2852 42.8616C29.1715 42.6544 29.0751 42.4271 28.9896 42.1804C28.3855 40.4596 28.4126 37.6318 27.7299 35.8124C27.6466 35.5902 27.5582 35.3809 27.4576 35.1787C27.3423 34.9531 27.2155 34.7408 27.0651 34.5491C26.8851 34.3104 26.6821 34.0984 26.4504 33.9198L26.3819 33.8636L26.3762 33.8703Z" fill="#303030"/>
<path d="M62.1563 3.42053C62.8304 2.74079 63.9573 2.48045 65.5164 2.4773C66.4422 2.46982 67.5139 2.55232 68.5927 2.62291C68.9019 2.64314 69.211 2.66337 69.5138 2.68319C71.6715 2.82437 73.4354 3.06971 74.2966 3.81897C74.7225 4.16855 74.9634 4.62975 75.0898 5.18864C75.1813 5.60913 75.2055 6.08709 75.1885 6.61185C75.1812 6.99495 75.1466 7.40719 75.1048 7.83134C75.0773 8.13887 75.0427 8.45832 75.014 8.78433C74.6016 12.7601 74.2725 16.7228 74.0506 20.6925C73.9542 23.1114 73.5789 25.809 74.5432 27.4559C74.6504 27.6485 74.7773 27.83 74.9177 28.0001C75.0994 28.2161 75.3079 28.4092 75.5434 28.5793C75.8028 28.7695 76.0959 28.9309 76.4223 29.0698C76.7793 29.2231 77.1641 29.3411 77.5822 29.4365C78.0751 29.5492 78.6025 29.6208 79.1573 29.6633C79.7936 29.7173 80.4515 29.7356 81.0967 29.7531C82.3429 29.7851 83.5669 29.7724 84.6041 29.8032C86.1221 29.8468 87.1903 30.0714 87.7107 31.0768C87.8229 31.2883 87.9136 31.5355 87.9834 31.8123C88.0233 31.9695 88.0564 32.1326 88.0829 32.3013C88.2868 33.6696 88.1624 35.7587 87.9783 37.5161C87.9475 37.7801 87.9113 38.0314 87.8691 38.2761C87.824 38.5639 87.7675 38.8324 87.6997 39.0816C87.6227 39.3735 87.5414 39.6342 87.4357 39.881C87.3073 40.1819 87.1625 40.4447 86.9887 40.6684C86.5713 41.2102 86.0114 41.5201 85.3026 41.6902C84.8579 41.7972 84.3599 41.8513 83.819 41.8839C83.4564 41.9035 83.0754 41.9157 82.6821 41.9209C77.4316 41.9671 71.208 41.6032 65.6605 40.8999C65.2836 40.8505 64.9139 40.7892 64.5577 40.7164C63.9264 40.5884 63.3355 40.426 62.8124 40.2C61.9932 39.8556 61.3364 39.361 60.855 38.7109C60.3972 38.087 60.095 37.3186 59.9208 36.4411C59.8125 35.8958 59.745 35.3098 59.7107 34.7013C59.3405 25.7868 59.7979 17.1863 60.7779 8.26731C60.8159 7.8986 60.8601 7.53029 60.9036 7.17431C60.9762 6.57895 61.0588 6.02137 61.17 5.50896C61.355 4.66111 61.6186 3.9607 62.0898 3.46567L62.1445 3.40738L62.1563 3.42053Z" fill="#303030"/>
<path d="M90.8077 6.62876C91.2858 5.98303 92.1471 5.5912 93.3838 5.36098C93.7525 5.29396 94.1537 5.2367 94.5743 5.18406C94.9009 5.14522 95.2475 5.11716 95.5936 5.08294C97.7245 4.92277 100.016 4.6381 101.466 4.89854C101.679 4.93707 101.873 4.98328 102.061 5.03615C102.277 5.10544 102.473 5.1824 102.647 5.28602C103.333 5.66408 103.735 6.2881 103.996 7.12173C104.161 7.64723 104.27 8.25166 104.369 8.90017C104.427 9.28569 104.48 9.68402 104.534 10.0885C105.649 18.8866 106.25 27.522 106.237 36.4053C106.233 36.8144 106.236 37.223 106.225 37.6141C106.206 38.2785 106.17 38.9069 106.071 39.46C105.915 40.3089 105.598 40.9911 104.987 41.4865C104.821 41.6177 104.641 41.7437 104.435 41.8534C104.289 41.9333 104.13 42.0019 103.964 42.0711C102.657 42.5919 100.552 42.7562 98.6758 42.8524C98.3975 42.8625 98.125 42.866 97.8582 42.8628C97.4644 42.8576 97.0884 42.8384 96.7418 42.7922C96.357 42.7428 96.0015 42.6663 95.688 42.5616C95.342 42.4472 95.0433 42.2917 94.7856 42.0958C94.1961 41.6542 93.8361 41.002 93.576 40.1807C93.4202 39.6916 93.297 39.1379 93.1906 38.5581C93.123 38.2105 93.0607 37.8501 92.9978 37.4836C91.4989 28.8032 90.6343 20.2697 90.2439 11.4934C90.2251 11.1233 90.2132 10.7588 90.2018 10.4004C90.1831 9.80733 90.1734 9.24446 90.2056 8.72774C90.25 7.90653 90.4005 7.21301 90.7746 6.68719L90.8198 6.62159L90.8077 6.62876Z" fill="#303030"/>
<path d="M108.488 20.4546C108.488 19.5719 108.532 18.6892 108.627 17.825C109.537 9.57189 114.779 3.41757 123.562 1.23238C124.131 1.09041 124.719 0.960779 125.307 0.849668C126.306 0.664483 127.324 0.52868 128.349 0.436088C129.74 0.312631 131.137 0.287939 132.497 0.337322C134.299 0.405223 136.082 0.627446 137.65 0.954606C139.016 1.24473 140.135 1.63362 140.818 2.39288C140.976 2.56572 141.109 2.75708 141.229 2.96695C141.33 3.15214 141.412 3.34967 141.482 3.56572C141.539 3.7509 141.589 3.94843 141.627 4.15214C141.905 5.77559 141.627 8.26942 141.033 10.0163C140.641 11.1521 140.053 11.9114 139.218 12.2571C138.788 12.4423 138.295 12.5225 137.738 12.5472C137.327 12.5657 136.879 12.5472 136.411 12.5163C136.057 12.4916 135.69 12.4608 135.317 12.4361C135.026 12.4114 134.729 12.3929 134.431 12.3744C131.283 12.146 128.247 12.5842 126.053 14.3991C124.251 15.8435 123.113 18.2262 123.202 20.5534C123.208 20.8558 123.24 21.1583 123.284 21.4546C123.341 21.825 123.429 22.1953 123.549 22.5472C124.005 23.9423 124.903 25.1398 126.098 25.9855C127.242 26.8003 128.646 27.2879 129.765 27.1398C130.1 27.1028 130.416 27.0102 130.695 26.8744C130.954 26.7509 131.188 26.5842 131.39 26.3867C131.554 26.2262 131.7 26.0472 131.833 25.8435C131.946 25.6707 132.048 25.4793 132.136 25.2756C132.781 23.8558 132.61 21.9546 133.458 20.9978C133.546 20.8991 133.641 20.8003 133.742 20.7139C133.913 20.5781 134.103 20.4546 134.324 20.3497C134.571 20.2324 134.849 20.1398 135.159 20.0595C136.891 19.6583 139.718 19.6398 141.57 20.0595C141.83 20.1213 142.07 20.1953 142.291 20.2818C142.512 20.3682 142.721 20.467 142.904 20.5781C143.17 20.7386 143.398 20.9237 143.594 21.1398C144.542 22.1707 144.586 23.9855 144.65 26.041C144.662 26.4546 144.669 26.8805 144.675 27.3003C144.675 27.6336 144.681 27.9731 144.681 28.3126C144.656 31.2386 144.789 34.3744 143.556 36.3003C143.417 36.5225 143.265 36.7324 143.094 36.9299C142.879 37.1768 142.645 37.3991 142.38 37.6028C141.362 38.4052 139.933 38.8744 138.339 39.2015C136.746 39.5349 135.038 39.7818 133.268 39.9114C131.953 40.0102 130.6 40.041 129.253 39.9978C128.279 39.967 127.305 39.8929 126.351 39.7756C117.441 38.7139 111.105 33.7015 109.145 25.9176C108.962 25.2015 108.817 24.467 108.709 23.72C108.557 22.683 108.475 21.6274 108.469 20.5719V20.4484L108.488 20.4546Z" fill="#303030"/>
<path d="M172.1 33.4191C171.897 33.2544 171.676 33.109 171.43 32.9831C171.242 32.8858 171.036 32.8077 170.824 32.736C169.284 32.2367 166.813 32.3129 165.165 32.8497C164.972 32.9132 164.791 32.9824 164.617 33.0636C164.388 33.1719 164.171 33.2919 163.975 33.4297C163.68 33.6394 163.424 33.8784 163.209 34.1591C163.047 34.3696 162.905 34.604 162.789 34.8558C162.696 35.0512 162.617 35.2583 162.55 35.4772C161.934 37.3435 162.391 40.3275 162.03 42.239C161.984 42.4941 161.918 42.7378 161.839 42.9634C161.749 43.2204 161.632 43.4538 161.496 43.6632C161.323 43.9236 161.105 44.1549 160.848 44.3569C160.542 44.5918 160.164 44.7864 159.728 44.9463C159.223 45.1276 158.64 45.2564 158.005 45.3442C157.281 45.4478 156.499 45.5107 155.722 45.5239C154.716 45.5402 153.733 45.4939 152.903 45.3301C151.806 45.1154 150.983 44.6856 150.435 43.9975C150.001 43.4592 149.724 42.7662 149.519 41.959C149.388 41.433 149.282 40.8628 149.193 40.2671C147.867 31.4864 147.334 23.0254 147.335 14.1844C147.335 13.7334 147.341 13.2883 147.348 12.8617C147.364 12.2 147.407 11.5804 147.503 11.0266C147.655 10.1431 147.96 9.43246 148.552 8.92021C149.156 8.38277 150.066 8.05524 151.242 7.87748C152.115 7.73677 153.132 7.6829 154.162 7.64085C154.996 7.6068 155.83 7.57891 156.584 7.60372C157.255 7.61954 157.866 7.68112 158.402 7.78897C158.9 7.8922 159.324 8.04169 159.681 8.24953C159.986 8.42859 160.236 8.64699 160.443 8.90419C160.597 9.09561 160.726 9.31274 160.832 9.55557C160.929 9.76782 161.003 9.9996 161.07 10.244C161.116 10.4275 161.162 10.6233 161.196 10.8196C161.535 12.6777 161.367 15.3907 161.996 17.0887C162.075 17.3079 162.16 17.5145 162.263 17.7018C162.394 17.9498 162.536 18.1726 162.71 18.3755C162.897 18.6027 163.114 18.7977 163.355 18.967C163.551 19.1011 163.758 19.2224 163.984 19.3182C165.591 20.0434 168.486 19.9561 170.142 19.1779C170.341 19.0833 170.532 18.9767 170.704 18.8584C170.926 18.7073 171.127 18.5323 171.302 18.3397C171.52 18.1023 171.698 17.8355 171.85 17.5389C172.037 17.1606 172.176 16.7286 172.264 16.2617C172.367 15.7261 172.412 15.1312 172.423 14.5067C172.437 13.808 172.405 13.0556 172.393 12.3394C172.377 11.506 172.381 10.7274 172.472 10.044C172.651 8.46744 173.413 7.47873 175.179 7.0421C175.542 6.94696 175.937 6.8752 176.365 6.81448C176.705 6.76971 177.07 6.73008 177.442 6.70253C177.72 6.67884 178.01 6.6608 178.301 6.64894C180.259 6.55663 182.268 6.47459 183.6 6.84032C183.805 6.89374 183.991 6.96026 184.171 7.03322C184.377 7.11747 184.565 7.22101 184.741 7.33122C185.431 7.77877 185.834 8.46664 186.081 9.3524C186.238 9.92056 186.335 10.5653 186.416 11.2602C186.465 11.6844 186.503 12.1277 186.542 12.5772C187.294 21.2701 187.487 29.609 186.95 38.3546C186.916 38.8812 186.874 39.3957 186.819 39.886C186.731 40.6371 186.596 41.3161 186.355 41.8943C185.971 42.8244 185.278 43.4891 184.194 43.8917C183.453 44.1752 182.536 44.3362 181.553 44.432C180.746 44.5082 179.899 44.5366 179.107 44.5195C178.442 44.5034 177.813 44.4488 177.258 44.3355C176.741 44.2331 176.285 44.0849 175.903 43.8842C175.573 43.7124 175.298 43.495 175.072 43.2386C174.879 43.024 174.723 42.7833 174.598 42.5166C174.494 42.3046 174.408 42.0733 174.334 41.823C173.81 40.0774 173.967 37.2537 173.369 35.4061C173.296 35.1805 173.217 34.9675 173.126 34.7612C173.021 34.5307 172.904 34.313 172.763 34.1149C172.594 33.8685 172.401 33.6478 172.178 33.4592L172.112 33.4001L172.1 33.4191Z" fill="#303030"/>
<path d="M198.802 20.5917C198.612 20.394 198.4 20.219 198.161 20.0663C197.977 19.9435 197.777 19.838 197.558 19.7429C197.376 19.6576 197.179 19.5895 196.976 19.5208C195.398 18.9754 193.158 19.0749 191.851 18.679C191.646 18.6226 191.463 18.5496 191.293 18.4716C191.099 18.3789 190.919 18.269 190.767 18.1368C190.573 17.976 190.408 17.7806 190.279 17.5452C190.106 17.2436 189.983 16.8786 189.911 16.4501C189.829 15.9898 189.799 15.4536 189.8 14.8646C189.808 14.2761 189.846 13.6286 189.9 12.9577C189.945 12.4348 189.992 11.8935 190.043 11.3713C190.09 10.8981 190.136 10.4312 190.204 9.99728C190.262 9.60581 190.324 9.23337 190.403 8.88729C190.471 8.58362 190.55 8.29957 190.639 8.04128C190.719 7.81312 190.802 7.61013 190.897 7.42061C191.571 6.05771 192.838 5.83579 194.663 5.88952C195.024 5.89868 195.403 5.91577 195.795 5.93403C203.449 6.33135 213.715 7.35881 221.421 8.44326C221.778 8.49543 222.129 8.54701 222.46 8.59682C223.017 8.68637 223.528 8.78406 223.986 8.90774C224.684 9.10366 225.249 9.37376 225.644 9.80785C226.166 10.3717 226.399 11.2308 226.423 12.4112C226.446 13.2692 226.358 14.2904 226.247 15.3466C226.155 16.2124 226.056 17.0899 225.934 17.8783C225.82 18.5808 225.682 19.2127 225.497 19.7349C225.337 20.1973 225.14 20.5758 224.896 20.869C224.708 21.0994 224.493 21.2838 224.244 21.4217C224.062 21.5224 223.871 21.5974 223.656 21.6516C223.474 21.6965 223.273 21.7334 223.068 21.7514C221.759 21.8825 219.717 21.399 218.092 21.581C217.912 21.6013 217.738 21.6222 217.564 21.6554C217.357 21.6917 217.161 21.7416 216.978 21.7987C216.729 21.8745 216.491 21.97 216.276 22.0862C216.001 22.234 215.755 22.4093 215.537 22.6183C215.272 22.8662 215.045 23.1612 214.86 23.4972C214.606 23.9446 214.421 24.4668 214.289 25.0372C214.203 25.395 214.133 25.773 214.076 26.1645C214.036 26.4398 214.002 26.7157 213.968 26.9977C213.487 31.4919 212.92 36.0091 212.209 40.5065C212.145 40.9035 212.082 41.2882 212.007 41.6595C211.905 42.177 211.781 42.6553 211.625 43.0809C211.415 43.6627 211.133 44.1447 210.734 44.5103C210.566 44.6681 210.382 44.7996 210.167 44.9159C209.986 45.0166 209.78 45.1027 209.563 45.1754C209.373 45.2381 209.178 45.2879 208.964 45.3237C207.572 45.5896 205.514 45.3961 203.656 45.1717C203.38 45.1334 203.111 45.0956 202.849 45.0462C201.625 44.8319 200.648 44.4981 200.009 43.9605C199.527 43.5617 199.222 43.0493 199.054 42.4381C198.932 41.9988 198.873 41.5033 198.856 40.9684C198.837 40.576 198.841 40.1546 198.851 39.7277C198.857 39.4119 198.869 39.0907 198.883 38.7632C199.077 34.1552 199.422 29.5676 199.832 25.0233C199.855 24.6658 199.877 24.3144 199.878 23.9735C199.88 23.4465 199.847 22.9411 199.758 22.4862C199.62 21.7662 199.338 21.1506 198.89 20.662L198.827 20.594L198.802 20.5917Z" fill="#303030"/>
<path d="M71.3268 97.2919C70.8142 97.3693 70.3009 97.4405 69.7929 97.5048C69.4104 97.5533 69.0342 97.6009 68.658 97.6485C68.4071 97.6803 68.1563 97.7121 67.9055 97.7438C65.5726 97.9894 62.9977 98.4773 61.1823 97.8669C60.9561 97.7959 60.7462 97.7043 60.5419 97.6056C60.3091 97.4857 60.0936 97.3512 59.8882 97.1967C59.6323 96.9988 59.3984 96.7732 59.1854 96.5138C58.9337 96.2034 58.7085 95.8522 58.5106 95.4664C58.3127 95.0806 58.1483 94.6595 57.9995 94.2115C57.885 93.8774 57.7877 93.5287 57.6958 93.1731C56.7434 89.3162 55.9769 85.4669 55.3273 81.6339C54.9148 79.1528 54.5524 76.6653 54.2448 74.1584C54.17 73.5952 54.1068 73.0243 54.0446 72.4596C53.9915 72.0119 53.9446 71.5634 53.8978 71.115C53.8667 70.8326 53.8347 70.5441 53.8098 70.2609C53.6018 67.7352 53.0761 64.8824 53.9176 63.0579C54.0115 62.853 54.1133 62.6596 54.2364 62.4822C54.375 62.2779 54.5341 62.0835 54.7152 61.9112C55.2281 61.4043 55.9181 61.0306 56.7301 60.7597C57.2242 60.5913 57.7625 60.4671 58.3282 60.3581C59.1745 60.2012 60.0696 60.0754 60.9387 59.9466C61.5642 59.855 62.1904 59.7695 62.8158 59.6778C63.3614 59.6087 63.9115 59.5266 64.4696 59.456C64.9838 59.3909 65.5043 59.3249 66.0318 59.2644C66.4708 59.2088 66.9113 59.1654 67.3653 59.1266C70.8827 58.7746 74.8135 58.7499 78.0807 59.5375C84.9681 61.1303 89.5967 65.6857 91.4352 72.3248C91.9866 74.3153 92.2792 76.4693 92.2632 78.5565C92.2455 80.7747 91.8743 82.8758 91.1688 84.7641C89.97 87.9783 87.8062 90.6488 84.8442 92.6858C84.4182 92.9825 83.9709 93.2632 83.5094 93.5333C83.1543 93.7401 82.7914 93.9355 82.415 94.1263C79.5867 95.5862 76.0634 96.5178 72.7688 97.0595C72.3323 97.1335 71.9012 97.2005 71.4702 97.2675L71.3385 97.2842L71.3268 97.2919ZM70.6026 85.1711C71.4176 85.6903 72.5727 85.6499 73.7695 85.156C74.9358 84.6721 76.0246 83.8931 76.7979 82.8989C77.4574 82.056 77.9099 81.0463 78.1266 79.942C78.2935 79.0868 78.3261 78.1801 78.2199 77.2848C78.1364 76.5609 77.9644 75.8419 77.7086 75.1647C77.4942 74.6067 77.2258 74.0743 76.9058 73.5857C76.6569 73.2002 76.3745 72.85 76.0632 72.5222C75.8409 72.2889 75.6014 72.0703 75.3456 71.8724C75.1535 71.7224 74.963 71.5847 74.7554 71.4616C73.0003 70.3455 70.4176 70.0066 69.1196 70.9864C68.9453 71.1142 68.786 71.2589 68.6479 71.4196C68.488 71.6079 68.3565 71.8175 68.2478 72.0553C68.1143 72.3461 68.0178 72.6758 67.963 73.0313C67.8921 73.4573 67.8779 73.926 67.8928 74.422C67.9214 75.1654 68.0334 75.9604 68.1329 76.757C68.3143 78.1221 68.5169 79.5032 68.7288 80.8582C69.0069 82.7588 69.4595 84.4381 70.5263 85.1247L70.6026 85.1711Z" fill="#303030"/>
<path d="M104.754 62.6668C105.64 62.0618 106.993 61.8643 108.947 61.8273C111.387 61.8026 114.821 61.8149 117.394 61.8211C117.692 61.8211 117.982 61.8273 118.261 61.8396C118.627 61.852 118.981 61.8705 119.304 61.8952C119.671 61.926 120.012 61.9692 120.328 62.0186C121.378 62.2038 122.118 62.5495 122.68 63.1112C123.091 63.5186 123.42 64.0433 123.73 64.6544C123.926 65.0433 124.122 65.4692 124.312 65.9199C127.606 73.5742 131.033 84.3211 133.12 94.2594C133.234 94.7964 133.329 95.3149 133.398 95.7964C133.594 97.1359 133.525 98.173 132.823 98.7964C132.665 98.9384 132.481 99.0557 132.266 99.1606C132.102 99.2409 131.925 99.3088 131.729 99.3643C131.564 99.4137 131.394 99.4569 131.204 99.4939C129.75 99.7841 127.461 99.71 125.482 99.71C125.184 99.71 124.9 99.6976 124.622 99.6853C124.204 99.6668 123.806 99.6359 123.439 99.5865C122.194 99.426 121.302 98.9754 120.632 98.389C120.316 98.1174 120.031 97.8149 119.747 97.5125C119.506 97.2532 119.266 96.9939 119.007 96.7409C118.811 96.5495 118.608 96.3705 118.387 96.1976C118.216 96.0618 118.033 95.9384 117.837 95.8211C117.698 95.7347 117.552 95.6606 117.407 95.5865C116.136 94.9322 114.328 94.9013 112.551 94.9816C112.304 94.9939 112.064 95.0125 111.83 95.0433C111.558 95.0742 111.293 95.1174 111.033 95.1668C110.629 95.2532 110.243 95.3705 109.889 95.5186C109.206 95.8026 108.637 96.1976 108.144 96.6297C107.771 96.9569 107.435 97.3088 107.094 97.6483C106.822 97.926 106.544 98.1976 106.234 98.4446C105.924 98.6915 105.589 98.9199 105.197 99.1051C104.837 99.2779 104.419 99.4137 103.958 99.5063C103.61 99.5742 103.237 99.6236 102.839 99.6544C102.529 99.6791 102.206 99.6915 101.871 99.7038C101.631 99.71 101.384 99.7162 101.138 99.7162C98.9118 99.7162 96.4458 99.7964 95.099 99.3334C94.8777 99.2594 94.6817 99.1791 94.5046 99.0804C94.3023 98.9692 94.1316 98.8396 93.9925 98.6915C93.5119 98.1915 93.3854 97.4631 93.4424 96.5495C93.4803 96.0063 93.5751 95.4013 93.7016 94.7532C93.7711 94.389 93.8534 94.0125 93.9292 93.6297C96.0601 83.7223 99.4683 73.1297 102.725 65.6297C102.959 65.0927 103.186 64.5989 103.433 64.1668C103.781 63.5495 104.166 63.0557 104.679 62.6976L104.742 62.6544L104.754 62.6668ZM116.25 84.8767C116.806 84.2347 116.661 83.1112 116.275 81.7902C115.984 80.7902 115.674 79.7655 115.358 78.747C115.156 78.0989 114.954 77.4322 114.745 76.8026C114.593 76.3581 114.448 75.9446 114.296 75.6051C114.189 75.3705 114.081 75.1668 113.974 75.0125C113.866 74.8581 113.759 74.747 113.651 74.6915C113.575 74.6483 113.499 74.6359 113.417 74.6421C113.341 74.6544 113.265 74.6853 113.183 74.747C112.614 75.1544 112.058 77.1668 111.539 78.8396C111.482 79.0248 111.425 79.21 111.368 79.3952C111.299 79.6236 111.229 79.8581 111.16 80.0865C111.078 80.3643 110.995 80.6359 110.913 80.9137C110.793 81.3273 110.667 81.7409 110.565 82.1359C110.439 82.6236 110.35 83.0804 110.338 83.4878C110.319 83.9692 110.395 84.3828 110.603 84.71C110.913 85.2162 111.539 85.5001 112.393 85.6297C113.076 85.7347 113.885 85.7409 114.568 85.6297C115.295 85.5186 115.858 85.3026 116.193 84.9384L116.25 84.8705V84.8767Z" fill="#303030"/>
<path d="M129.423 57.9233C129.82 57.4053 130.643 57.157 131.876 57.1093C132.81 57.0664 133.971 57.1377 135.195 57.2193C136.097 57.2794 137.012 57.3404 137.863 57.4096C138.562 57.4686 139.222 57.5435 139.811 57.6508C140.23 57.7221 140.617 57.8098 140.971 57.9138C141.25 58.0005 141.51 58.0921 141.75 58.2009C143.361 58.9085 143.845 60.3205 144.45 62.2727C144.527 62.5254 144.605 62.778 144.687 63.0434C144.791 63.3782 144.9 63.7258 145.015 64.0738C145.176 64.5733 145.343 65.0856 145.515 65.6107C145.704 66.1739 145.898 66.7561 146.107 67.3021C146.325 67.8921 146.566 68.4402 146.813 68.9021C147.16 69.5502 147.533 70.0144 147.93 70.2265C148.101 70.3184 148.275 70.3671 148.453 70.3666C148.611 70.3709 148.772 70.3322 148.929 70.2622C149.053 70.2086 149.173 70.1361 149.293 70.0452C150.36 69.2872 151.471 66.9112 152.401 65.0242C152.49 64.8384 152.58 64.6525 152.668 64.4728C152.809 64.179 152.943 63.891 153.077 63.6091C153.263 63.2193 153.435 62.841 153.612 62.4816C153.834 62.0262 154.048 61.595 154.271 61.2139C154.53 60.7733 154.81 60.396 155.137 60.0775C155.906 59.3244 157.021 58.9718 158.66 58.9141C159.048 58.8967 159.453 58.8989 159.883 58.9091C160.219 58.9191 160.566 58.9299 160.92 58.9473C163.115 59.0937 165.651 59.1823 167.151 59.567C167.363 59.6244 167.562 59.681 167.741 59.7486C167.951 59.8245 168.128 59.9168 168.286 60.014C168.511 60.1527 168.689 60.3193 168.81 60.5005C169.137 60.9803 169.131 61.6109 168.925 62.3891C168.805 62.8328 168.625 63.322 168.411 63.8398C168.282 64.1529 168.145 64.4717 167.996 64.7959C165.604 70.1801 162.3 75.7263 158.695 80.8688C158.384 81.3244 158.086 81.7871 157.8 82.2445C157.364 82.9579 156.965 83.6737 156.629 84.4061C155.655 86.4511 155.23 88.6377 154.914 90.8812C154.87 91.1567 154.831 91.4325 154.788 91.6957C154.732 92.0384 154.671 92.3685 154.592 92.6788C154.292 93.9766 153.811 94.9593 152.81 95.505C152.058 95.9251 151.007 96.0963 149.706 96.1086C148.78 96.1211 147.733 96.0512 146.673 95.9805C145.828 95.9242 144.976 95.8674 144.202 95.7848C143.523 95.7086 142.89 95.6107 142.336 95.4747C141.862 95.3565 141.435 95.2105 141.074 95.0317C140.774 94.8817 140.507 94.7093 140.286 94.5089C140.083 94.3284 139.913 94.1314 139.777 93.9119C139.668 93.7438 139.573 93.558 139.492 93.367C138.874 91.8656 139.143 89.4705 138.966 87.287C138.951 87.0509 138.93 86.8082 138.909 86.5717C138.87 86.2164 138.825 85.8608 138.774 85.5047C138.703 85.073 138.619 84.6405 138.522 84.2133C138.396 83.6666 138.237 83.1301 138.053 82.5919C137.885 82.0919 137.691 81.5964 137.479 81.0996C137.316 80.7175 137.146 80.3349 136.963 79.9577C135.708 77.4177 134.426 74.8202 133.324 72.1913C131.892 68.8228 130.648 65.4111 129.706 62.1124C129.63 61.8474 129.56 61.5829 129.489 61.3306C129.394 60.9654 129.304 60.613 129.238 60.2869C129.155 59.8544 129.1 59.4609 129.093 59.1078C129.087 58.6495 129.178 58.2596 129.389 57.9581L129.43 57.9052L129.423 57.9233Z" fill="#303030"/>
<path d="M43.6307 38.9452C43.5272 35.2451 47.9637 33.5764 50.9855 35.1725C54.0073 36.6284 53.9235 41.5813 50.813 42.8727C47.7813 44.2948 43.537 42.6648 43.6307 39.0371V38.9452Z" fill="#303030"/>
</g>
<g clip-path="url(#clip1_408_21347)">
<path d="M15.2531 134.421C15.2913 133.416 15.4557 132.426 15.7806 131.545C15.8494 131.155 16.5795 130.285 15.8876 130.135C15.383 130.037 14.588 130.288 14.4924 129.636C14.4122 128.601 14.3319 127.052 14.4122 126.032C14.4198 125.541 14.8938 125.316 15.3448 125.286C17.2981 125.053 19.2666 124.975 21.2007 124.896C22.7679 124.757 19.1787 124.052 18.3416 123.94C17.8179 123.898 17.1413 123.737 17.386 123.081C17.7109 122.245 18.0167 121.198 18.5021 120.418C18.934 119.732 19.8247 120.062 20.5051 120.212C23.2457 120.906 25.0728 121.96 26.1049 123.231C26.4374 123.58 26.3877 124.161 26.4489 124.562C26.5674 125.072 27.286 125.012 27.6835 125.065C27.9969 125.091 28.3754 125.117 28.7347 125.14C31.6664 125.233 31.2269 125.627 31.1389 128.252C31.0854 128.826 31.2116 129.325 30.9975 129.846C30.7682 130.247 30.084 130.007 29.6406 130.112C29.2889 130.195 29.4036 130.566 29.5144 130.825C31.7238 135.917 29.6176 142.566 23.6967 142.877C18.6512 143.447 14.9091 139.877 15.2493 134.488V134.425L15.2531 134.421ZM24.6982 133.757C24.7708 132.212 24.2701 128.995 22.0455 130.041C20.2681 131.128 20.291 138.628 23.1998 137.781C24.7441 137.2 24.6141 135.145 24.6982 133.795V133.757ZM32.2818 122.773C32.5532 122.428 33.1037 122.458 33.5203 122.44C34.8084 122.44 36.0545 122.428 37.358 122.447C38.1072 122.425 38.5429 122.841 38.5697 123.572C38.6996 125.177 38.6461 126.82 38.6691 128.447C38.6767 128.95 38.7455 129.568 39.2424 129.823C40.9052 130.318 41.0198 130.105 40.9816 132.111C40.9166 132.947 41.1995 134.316 40.6032 134.743C40.0069 135.137 38.9825 134.848 38.65 135.625C38.5315 135.868 38.4894 136.168 38.4627 136.446C38.2218 138.67 38.3327 140.995 37.8167 143.181C37.6103 143.683 37.1019 143.822 36.6011 143.818C35.4659 143.788 34.0516 143.912 32.9125 143.751C32.2054 143.593 32.1137 142.798 32.0793 142.176C31.8002 135.76 31.3148 129.152 32.2474 122.811L32.278 122.766L32.2818 122.773Z" fill="#303030"/>
<path d="M42.1298 132.812C42.0686 127.093 44.7252 122.769 50.7645 122.994C54.5487 123.013 57.8054 125.724 58.3061 129.433C59.9459 137.462 56.2267 144.639 47.6913 142.476C43.4599 141.182 42.0839 137.267 42.1259 132.872V132.808L42.1298 132.812ZM52.6796 132.857C52.6337 131.282 52.649 128.529 50.8639 127.967C50.2103 127.851 49.442 128.004 49.0062 128.544C47.8633 130.292 48.0698 132.647 48.1806 134.653C48.3144 136.164 48.8228 138.152 50.711 137.856C52.8248 137.353 52.5649 134.571 52.6834 132.898V132.861L52.6796 132.857ZM60.7066 122.758C60.9245 122.454 61.3335 122.454 61.6889 122.447C62.7669 122.439 64.5137 122.447 65.691 122.447C66.8721 122.372 67.2047 122.904 67.2047 124.014C67.434 130.326 67.304 136.633 66.5625 142.926C66.4364 143.567 65.9394 143.833 65.3393 143.818C64.4105 143.833 63.0726 143.826 62.0903 143.822C60.955 143.901 60.611 143.259 60.5881 142.224C60.2517 135.793 59.7319 129.144 60.676 122.807L60.7066 122.762V122.758Z" fill="#303030"/>
<path d="M70.0915 135.04C69.8469 134.376 69.3958 133.712 69.4035 132.928C69.3308 131.635 69.6863 130.862 71.0203 130.948C72.8207 130.926 75.5766 130.99 77.3884 130.918C78.8715 130.896 79.1773 128.98 78.0115 128.263C76.2647 127.333 74.2388 127.78 72.232 127.765C71.4332 127.81 70.4737 127.69 70.2673 126.782C70.0953 125.845 69.9845 124.393 70.5081 123.767C70.7948 123.418 71.3338 123.268 71.8077 123.208C75.3244 122.923 81.7765 122.413 84.6816 124.933C85.7404 125.931 85.9582 127.292 85.339 128.815C84.8994 129.76 84.7274 130.521 85.2932 131.466C85.6525 132.265 85.7633 133.36 85.339 134.158C84.995 134.755 84.135 134.665 83.1564 134.672C82.1741 134.672 81.1726 134.672 80.1903 134.672C79.2499 134.702 77.7974 134.5 77.312 135.317C76.6775 136.498 77.7477 137.725 79.0283 137.863C80.4999 138.111 82.0747 137.976 83.6075 137.837C84.5898 137.698 85.4269 138.13 85.6142 139.093C85.8359 139.99 86.0882 141.182 85.6066 141.73C85.2932 142.146 84.6357 142.285 84.1006 142.36C80.7445 142.753 76.0124 143.008 72.492 141.715C70.4584 140.893 69.5525 139.412 69.9042 137.38C70.0112 136.663 70.3361 135.775 70.1144 135.103L70.0991 135.047L70.0915 135.04ZM87.2846 122.751C87.4528 122.526 87.7739 122.477 88.0606 122.458C88.8518 122.421 89.6277 122.451 90.419 122.44C91.214 122.53 92.4525 122.203 93.1291 122.717C93.3164 122.912 93.3813 123.223 93.4157 123.497C93.5916 125.271 93.4845 127.108 93.5954 128.89C93.6298 129.291 93.7789 129.707 94.1802 129.872C95.6633 130.247 96.0914 129.861 96.0226 131.8C96.0226 132.231 96.0264 132.673 96.0264 133.105C96.0073 133.795 96.1067 134.481 95.6748 134.766C94.8338 135.212 93.561 134.695 93.4119 136.03C93.217 138.265 93.1443 140.537 92.8577 142.768C92.808 143.432 92.2843 143.86 91.6192 143.815C90.7286 143.83 89.4901 143.822 88.5728 143.815C88.2288 143.807 87.8465 143.785 87.5866 143.545C87.2579 143.245 87.2196 142.663 87.1852 142.217C86.8259 135.775 86.3711 129.141 87.2502 122.785L87.2808 122.74L87.2846 122.751Z" fill="#303030"/>
<path d="M97.1727 132.812C97.1116 127.093 99.7681 122.769 105.808 122.994C109.592 123.013 112.848 125.724 113.349 129.433C114.993 137.462 111.266 144.639 102.734 142.476C98.5029 141.182 97.1269 137.267 97.1689 132.872V132.808L97.1727 132.812ZM107.723 132.857C107.677 131.282 107.692 128.529 105.907 127.967C105.253 127.851 104.485 128.004 104.049 128.544C102.906 130.292 103.113 132.647 103.224 134.653C103.357 136.164 103.866 138.152 105.754 137.856C107.868 137.353 107.608 134.571 107.726 132.898V132.861L107.723 132.857ZM115.75 122.758C115.967 122.454 116.376 122.454 116.732 122.447C117.81 122.439 119.557 122.447 120.734 122.447C121.915 122.372 122.248 122.904 122.248 124.014C122.477 130.326 122.347 136.629 121.605 142.926C121.479 143.567 120.982 143.833 120.382 143.818C119.453 143.833 118.112 143.826 117.133 143.822C115.998 143.901 115.654 143.259 115.631 142.224C115.295 135.793 114.775 129.144 115.719 122.807L115.75 122.762V122.758Z" fill="#303030"/>
<path d="M124.818 139.247C124.89 139.157 125.009 139.123 125.158 139.108C128.51 139.089 134.947 139.093 139.217 139.104C144.174 139.138 148.597 139.003 149.702 139.146C149.847 139.191 149.889 139.393 149.904 139.554C149.973 140.477 149.9 141.504 149.923 142.584C149.923 142.862 149.946 143.211 149.774 143.424C144.029 143.964 127.918 143.492 124.967 143.593C124.867 143.578 124.795 143.511 124.753 143.364C124.627 142.299 124.715 140.822 124.699 139.734C124.699 139.581 124.726 139.393 124.795 139.284L124.818 139.254V139.247ZM126.779 128.042C126.209 127.179 126.217 126.148 126.159 125.098C126.11 124.299 126.022 123.174 127.096 123.066C132.635 122.526 140.276 122.646 145.795 123.073C146.751 123.118 147.519 123.276 147.443 124.453C147.366 125.451 147.481 126.489 147.179 127.397C146.877 127.989 146.093 127.843 145.535 127.813C143.311 127.656 140.451 127.539 137.799 127.532C136.587 127.562 135.077 127.307 134.099 127.888C133.693 128.124 133.663 128.548 134.221 128.631C137.806 128.721 141.445 128.537 145.042 128.736C145.447 128.762 145.929 128.833 146.189 129.137C146.567 129.598 146.56 130.652 146.384 131.327C146.158 132.009 145.313 131.987 144.698 132.017C141.353 132.114 138.009 132.103 134.672 132.054C134.316 132.043 133.556 132.174 134.079 132.534C137.191 133.993 142.347 133.314 145.489 133.044C146.858 132.804 147.16 133.513 147.335 134.784C147.408 135.471 147.783 136.277 147.393 136.914C147.076 137.334 146.41 137.379 145.914 137.454C138.987 138.452 123.331 138.988 126.683 129.152C126.809 128.709 126.897 128.357 126.798 128.087L126.779 128.034V128.042Z" fill="#303030"/>
<path d="M160.243 128.957C159.921 128.713 159.027 128.942 159.019 128.308C158.954 127.116 158.79 125.361 158.87 124.153C158.943 123.64 159.581 123.61 160.006 123.561C161.852 123.347 171.637 122.882 171.767 124.063C171.886 124.99 171.706 126.107 171.691 127.266C171.626 127.915 171.859 128.901 170.854 128.8C169.642 128.728 168.357 128.395 167.222 128.856C164.405 130.412 163.996 135.178 166.649 136.551C167.696 137.128 168.904 137.233 170.085 137.072C170.532 137.061 171.324 136.701 171.687 137.072C171.813 137.211 171.874 137.428 171.916 137.612C172.119 138.576 172.486 140.087 172.627 141.047C172.856 142.596 168.411 142.615 167.757 142.633C160.541 142.821 156.523 136.202 159.872 130.033C159.983 129.763 160.415 129.235 160.265 128.987L160.235 128.957H160.243ZM169.886 130.588C170.632 129.966 172.142 129.988 172.669 128.98C173.372 127.735 172.822 125.8 173.216 124.438C173.571 122.77 175.865 122.698 177.202 123.028C177.936 123.193 178.093 123.895 178.085 124.588C178.085 128.665 178.196 138.178 178.032 142.243C177.837 143.717 175.352 143.578 174.389 142.791C173.449 141.951 173.548 140.646 173.441 139.315C173.323 136.48 173.296 135.561 170.487 134.796C168.996 134.237 168.87 131.665 169.844 130.626L169.883 130.592L169.886 130.588ZM179.462 122.518C180.589 122.327 182.007 122.492 183.246 122.451C183.918 122.413 184.515 122.65 184.522 123.411C184.649 129.662 184.431 135.91 183.987 142.161C183.949 142.57 183.945 143.08 183.735 143.421C183.555 143.706 183.177 143.792 182.745 143.811C181.923 143.833 180.96 143.818 180.245 143.822C179.924 143.807 179.385 143.867 179.27 143.515C179.236 141.448 179.259 133.018 179.255 129.598C179.255 127.431 179.247 124.63 179.263 122.845C179.274 122.71 179.305 122.601 179.431 122.537L179.465 122.522L179.462 122.518Z" fill="#303030"/>
<path d="M186.614 132.812C186.553 127.094 189.21 122.77 195.249 122.995C199.033 123.014 202.29 125.725 202.791 129.434C204.434 137.462 200.707 144.64 192.176 142.476C187.944 141.182 186.568 137.267 186.61 132.872V132.809L186.614 132.812ZM197.164 132.857C197.118 131.282 197.133 128.53 195.348 127.967C194.695 127.851 193.926 128.005 193.491 128.545C192.348 130.292 192.554 132.647 192.665 134.654C192.799 136.165 193.307 138.152 195.195 137.856C197.309 137.354 197.049 134.571 197.168 132.899V132.861L197.164 132.857ZM205.153 122.714C205.348 122.444 205.715 122.455 206.024 122.447C207.202 122.44 209.315 122.447 210.535 122.447C211.597 122.372 211.681 123.167 211.685 124.015C211.922 130.349 211.762 136.686 211.047 143.009C210.959 143.594 210.508 143.837 209.965 143.819C208.998 143.83 207.45 143.822 206.418 143.819C205.761 143.864 205.183 143.642 205.134 142.9C204.683 136.229 204.274 129.366 205.122 122.759L205.153 122.714Z" fill="#303030"/>
</g>
<defs>
<clipPath id="clip0_408_21347">
<rect width="227" height="100" fill="white"/>
</clipPath>
<clipPath id="clip1_408_21347">
<rect width="198" height="24" fill="white" transform="translate(14 120)"/>
</clipPath>
</defs>
</svg>
